<?xml version="1.0" standalone="no"?>
<!DOCTYPE svg PUBLIC "-//W3C//DTD SVG 20010904//EN"
 "http://www.w3.org/TR/2001/REC-SVG-20010904/DTD/svg10.dtd">
<svg version="1.0" xmlns="http://www.w3.org/2000/svg"
 width="421.000000pt" height="430.000000pt" viewBox="0 0 421.000000 430.000000"
 preserveAspectRatio="xMidYMid meet">

<g transform="translate(0.000000,430.000000) scale(0.100000,-0.100000)"
fill="#000000" stroke="none">
<path d="M2029 4286 c-19 -7 -62 -28 -95 -48 -115 -68 -154 -75 -246 -43 -89
31 -175 33 -232 5 -23 -11 -72 -53 -109 -95 -38 -41 -82 -82 -99 -91 -19 -10
-75 -18 -157 -23 -69 -4 -136 -13 -148 -19 -31 -17 -71 -68 -105 -136 -69
-136 -100 -166 -200 -187 -96 -21 -173 -71 -202 -134 -10 -19 -24 -74 -32
-122 -22 -127 -38 -151 -146 -225 -142 -97 -160 -139 -138 -316 12 -92 11
-101 -7 -142 -11 -25 -40 -67 -64 -94 l-44 -50 0 -140 c0 -108 4 -157 19 -208
19 -67 19 -69 0 -135 -14 -51 -19 -98 -18 -188 1 -146 13 -193 60 -237 65 -59
75 -112 53 -263 -19 -129 4 -171 155 -275 94 -65 114 -97 125 -193 11 -92 47
-175 93 -210 18 -14 77 -40 131 -57 54 -18 111 -43 126 -56 16 -13 52 -69 80
-123 74 -144 103 -163 266 -176 160 -13 179 -20 227 -82 99 -130 199 -166 340
-123 128 39 162 32 338 -66 88 -49 128 -45 261 25 138 72 171 78 263 46 145
-50 225 -29 326 85 81 92 115 107 268 119 171 14 190 27 275 198 49 96 86 126
181 147 95 22 162 65 193 127 12 24 29 83 37 131 22 127 34 148 131 213 100
67 142 112 151 161 4 21 4 91 0 156 -6 105 -4 124 13 163 10 24 30 51 44 60
44 28 57 81 57 223 0 80 -6 147 -15 182 -19 71 -19 107 1 161 13 32 17 80 18
179 0 121 -2 139 -22 177 -12 23 -31 47 -43 53 -51 28 -70 134 -49 268 19 116
-10 167 -155 272 -45 33 -89 70 -97 82 -9 13 -20 60 -27 106 -13 104 -44 174
-90 213 -23 19 -73 41 -136 60 -55 17 -112 40 -127 51 -17 11 -48 60 -79 123
-75 155 -93 166 -304 185 -148 13 -149 13 -174 54 -29 47 -125 134 -166 151
-48 21 -108 19 -190 -5 -110 -33 -160 -29 -241 15 -145 80 -158 85 -198 85
-23 -1 -57 -7 -77 -14z m204 -138 c40 -24 87 -50 105 -57 45 -19 169 -9 250
19 34 12 73 19 85 16 12 -3 65 -44 117 -91 127 -115 157 -128 295 -135 147 -7
174 -24 221 -141 49 -120 87 -152 260 -215 54 -20 103 -40 107 -44 5 -4 19
-57 32 -116 38 -177 54 -204 159 -272 140 -89 156 -119 131 -251 -22 -116 -5
-183 70 -276 55 -69 95 -138 95 -166 0 -15 -16 -58 -35 -96 -63 -123 -65 -215
-6 -330 31 -63 42 -113 31 -153 -6 -19 -41 -75 -80 -123 -40 -51 -72 -101 -75
-120 -3 -18 -4 -93 -3 -167 4 -159 1 -165 -103 -229 -37 -23 -79 -54 -94 -69
-43 -42 -73 -118 -84 -210 -13 -117 -33 -137 -199 -193 -47 -16 -99 -39 -116
-52 -18 -14 -51 -63 -80 -118 -27 -52 -56 -102 -65 -113 -31 -36 -74 -49 -171
-52 -154 -6 -171 -13 -277 -121 l-91 -93 -56 0 c-31 0 -93 9 -138 21 -111 29
-160 23 -240 -29 -137 -89 -188 -94 -298 -27 -137 82 -198 90 -342 45 -111
-35 -117 -33 -228 75 -54 53 -114 102 -134 110 -22 10 -70 15 -128 15 -96 1
-155 15 -189 46 -11 10 -36 52 -56 93 -63 136 -99 167 -254 220 -46 16 -92 32
-101 36 -19 8 -27 31 -57 166 -30 131 -57 172 -165 243 -47 31 -94 69 -103 83
-20 30 -22 89 -8 210 10 93 -4 133 -91 250 -93 127 -94 133 -42 240 40 81 43
93 43 168 -1 70 -5 90 -38 162 -57 125 -52 145 68 299 67 86 65 74 55 289 -6
115 6 138 97 195 133 83 168 133 184 263 5 45 12 90 15 99 10 34 73 76 156
103 151 50 166 64 254 234 48 94 79 110 205 111 144 0 214 34 301 144 22 28
50 56 62 63 31 18 101 15 186 -7 107 -28 174 -26 230 6 25 15 74 42 110 61 85
45 125 41 223 -19z"/>
</g>
</svg>
